# xmcd
#
# Track frame offsets:
#	150
#	14533
#	29061
#	44764
#	61115
#	83510
#	96179
#	112821
#	128549
#	142676
#	156484
#	182221
#
# Disc length: 2685 seconds
#
# Revision: 0
# Processed by: cddbd v1.5.2PL0 Copyright (c) Steve Scherf et al.
# Submitted via: EasyCDDAExtractor 15.3.0.1
#
DISCID=980a7b0c
DTITLE=Alejandra Guzman - Lipstick
DYEAR=2004
DGENRE=Latin
TTITLE0=Lipstick
TTITLE1=Creo En Mi
TTITLE2=Salvame
TTITLE3=Hoy Me Voy A Querer
TTITLE4=Tengo Derecho A Estar Mal
TTITLE5=Mundos
TTITLE6=Un Juego Mas
TTITLE7=Tu Corazon
TTITLE8=Tu Eres Mi Luz
TTITLE9=Supersexitada
TTITLE10=Lipstick (En Ingles)
TTITLE11=Data
EXTD=
EXTT0=
EXTT1=
EXTT2=
EXTT3=
EXTT4=
EXTT5=
EXTT6=
EXTT7=
EXTT8=
EXTT9=
EXTT10=
EXTT11=
PLAYORDER=
